<svg width="128" height="128" viewBox="0 0 128 128" fill="none" xmlns="http://www.w3.org/2000/svg">
<path d="M59.0748 51.5537H78.1038V80.768H50.5146V60.1131C50.5586 57.8697 51.479 55.7327 53.0788 54.1592C54.6786 52.5858 56.8308 51.7009 59.0748 51.694V51.5537Z" fill="#09325A"/>
<path d="M50.5146 97.7998H78.1038V117.95C78.1038 120.354 77.1487 122.659 75.4486 124.359C73.7485 126.059 71.4428 127.014 69.0385 127.014H59.58C57.1757 127.014 54.8699 126.059 53.1699 124.359C51.4698 122.659 50.5146 120.354 50.5146 117.95V97.7998Z" fill="#208CCC"/>
<path d="M50.5701 124.238L50.7946 124.49L50.5421 124.238L48.8019 122.498L19.6129 93.3117C19.129 92.8665 18.7378 92.33 18.4617 91.7332C18.1855 91.1364 18.03 90.491 18.0039 89.834C17.9779 89.177 18.0818 88.5212 18.3097 87.9044C18.5377 87.2876 18.8851 86.7218 19.3322 86.2396L19.6129 85.9591L48.8019 56.7728L50.514 55.0328L50.7946 54.7803L50.5421 55.0328C49.3643 56.4071 48.7259 58.1624 48.7458 59.9721V119.327C48.7505 121.129 49.3973 122.87 50.5701 124.238Z" fill="#09325A"/>
<path d="M109.004 93.3117L79.815 122.498L78.1029 124.21L77.8223 124.49L78.0749 124.21C79.2232 122.831 79.8491 121.093 79.843 119.299V29.102L108.948 0V85.9029L109.004 93.3117Z" fill="#208CCC"/>
</svg>
