<svg width="192" height="192" viewBox="0 0 192 192" fill="none" xmlns="http://www.w3.org/2000/svg">
<path d="M90.128 79.2109H117.52V121.265H77.8057V91.5321C77.869 88.3028 79.1938 85.2266 81.4968 82.9616C83.7997 80.6966 86.8978 79.4228 90.128 79.4129V79.2109Z" fill="#09325A"/>
<path d="M77.8057 145.783H117.52V174.789C117.52 178.249 116.145 181.568 113.698 184.015C111.251 186.462 107.932 187.837 104.471 187.837H90.8552C87.3943 187.837 84.0751 186.462 81.6278 184.015C79.1805 181.568 77.8057 178.249 77.8057 174.789V145.783Z" fill="#208CCC"/>
<path d="M77.8845 183.839L78.2078 184.203L77.8442 183.839L75.3392 181.335L33.3218 139.321C32.6252 138.68 32.062 137.908 31.6645 137.049C31.2671 136.19 31.0432 135.261 31.0057 134.315C30.9681 133.369 31.1177 132.425 31.4458 131.537C31.774 130.65 32.2741 129.835 32.9177 129.141L33.3218 128.737L75.3392 86.7237L77.8038 84.219L78.2078 83.8555L77.8442 84.219C76.1488 86.1973 75.2299 88.724 75.2584 91.329V176.77C75.2653 179.364 76.1963 181.87 77.8845 183.839Z" fill="#09325A"/>
<path d="M161.999 139.322L119.982 181.335L117.517 183.8L117.113 184.204L117.477 183.8C119.13 181.815 120.031 179.312 120.022 176.73V46.8923L161.919 5V128.657L161.999 139.322Z" fill="#208CCC"/>
</svg>
