<svg width="256" height="256" viewBox="0 0 256 256" fill="none" xmlns="http://www.w3.org/2000/svg">
<path d="M119.439 104.704H156.241V161.204H102.884V121.258C102.969 116.919 104.749 112.786 107.843 109.743C110.937 106.7 115.099 104.989 119.439 104.975V104.704Z" fill="#09325A"/>
<path d="M102.884 194.145H156.241V233.114C156.241 237.763 154.394 242.222 151.106 245.51C147.818 248.798 143.359 250.645 138.709 250.645H120.416C115.766 250.645 111.307 248.798 108.019 245.51C104.731 242.222 102.884 237.763 102.884 233.114V194.145Z" fill="#208CCC"/>
<path d="M102.99 245.274L103.425 245.762L102.936 245.274L99.5705 241.909L43.1193 185.463C42.1834 184.602 41.4268 183.564 40.8928 182.41C40.3588 181.256 40.058 180.008 40.0076 178.737C39.9572 177.466 40.1581 176.198 40.599 175.005C41.0398 173.812 41.7118 172.718 42.5765 171.785L43.1193 171.243L99.5705 114.797L102.882 111.432L103.425 110.943L102.936 111.432C100.658 114.09 99.4237 117.484 99.462 120.984V235.776C99.4712 239.26 100.722 242.628 102.99 245.274Z" fill="#09325A"/>
<path d="M216 185.464L159.548 241.91L156.237 245.221L155.694 245.763L156.183 245.221C158.404 242.555 159.614 239.192 159.603 235.723V61.283L215.891 5V171.135L216 185.464Z" fill="#208CCC"/>
</svg>
