<svg width="512" height="512" viewBox="0 0 512 512" fill="none" xmlns="http://www.w3.org/2000/svg">
<path d="M239.135 209.24H313.784V323.846H205.554V242.818C205.726 234.017 209.337 225.634 215.613 219.462C221.889 213.289 230.332 209.818 239.135 209.791V209.24Z" fill="#09325A"/>
<path d="M205.554 390.662H313.784V469.708C313.784 479.139 310.037 488.184 303.368 494.852C296.698 501.521 287.653 505.268 278.221 505.268H241.116C231.685 505.268 222.639 501.521 215.97 494.852C209.301 488.184 205.554 479.139 205.554 469.708V390.662Z" fill="#208CCC"/>
<path d="M205.77 494.373L206.651 495.364L205.66 494.373L198.833 487.548L84.3273 373.052C82.4289 371.306 80.8942 369.201 79.811 366.86C78.7279 364.519 78.1177 361.987 78.0154 359.41C77.9131 356.832 78.3207 354.259 79.215 351.84C80.1092 349.42 81.4722 347.201 83.2262 345.309L84.3273 344.209L198.833 229.713L205.55 222.887L206.651 221.896L205.66 222.887C201.04 228.278 198.536 235.164 198.613 242.264V475.107C198.632 482.176 201.169 489.006 205.77 494.373Z" fill="#09325A"/>
<path d="M434.999 373.055L320.493 487.55L313.777 494.266L312.676 495.366L313.667 494.266C318.171 488.858 320.627 482.037 320.603 475V121.165L434.779 7V343.99L434.999 373.055Z" fill="#208CCC"/>
</svg>
