<svg width="72" height="72" viewBox="0 0 72 72" fill="none" xmlns="http://www.w3.org/2000/svg">
<path d="M34.0496 30.165H43.3382V44.4254H29.8711V34.3431C29.8926 33.2481 30.3418 32.2049 31.1227 31.4369C31.9037 30.6688 32.9542 30.2369 34.0496 30.2335V30.165Z" fill="#09325A"/>
<path d="M29.8711 52.7393H43.3382V62.5749C43.3382 63.7484 42.8719 64.8738 42.0421 65.7036C41.2122 66.5334 40.0867 66.9996 38.9131 66.9996H34.2962C33.1226 66.9996 31.997 66.5334 31.1672 65.7036C30.3373 64.8738 29.8711 63.7484 29.8711 62.5749V52.7393Z" fill="#208CCC"/>
<path d="M29.8984 65.6445L30.008 65.7677L29.8847 65.6445L29.0353 64.7951L14.7873 50.5485C14.5511 50.3312 14.3601 50.0693 14.2253 49.778C14.0906 49.4867 14.0146 49.1717 14.0019 48.851C13.9892 48.5302 14.0399 48.2101 14.1512 47.909C14.2624 47.608 14.432 47.3318 14.6503 47.0964L14.7873 46.9595L29.0353 32.7128L29.871 31.8635L30.008 31.7402L29.8847 31.8635C29.3098 32.5343 28.9982 33.3911 29.0079 34.2745V63.2472C29.0102 64.1267 29.3259 64.9767 29.8984 65.6445Z" fill="#09325A"/>
<path d="M58.4219 50.5481L44.1739 64.7947L43.3382 65.6304L43.2012 65.7673L43.3245 65.6304C43.885 64.9575 44.1905 64.1088 44.1876 63.2331V19.2055L58.3945 5V46.9316L58.4219 50.5481Z" fill="#208CCC"/>
</svg>
