<svg width="96" height="96" viewBox="0 0 96 96" fill="none" xmlns="http://www.w3.org/2000/svg">
<path d="M44.4308 39.1943H58.5287V60.8382H38.0889V45.5357C38.1215 43.8736 38.8033 42.2904 39.9886 41.1247C41.1738 39.959 42.7683 39.3034 44.4308 39.2983V39.1943Z" fill="#09325A"/>
<path d="M38.0889 73.457H58.5287V88.3852C58.5287 90.1663 57.8211 91.8745 56.5616 93.1339C55.302 94.3933 53.5938 95.1009 51.8125 95.1009H44.8051C43.0238 95.1009 41.3156 94.3933 40.056 93.1339C38.7965 91.8745 38.0889 90.1663 38.0889 88.3852V73.457Z" fill="#208CCC"/>
<path d="M38.13 93.0437L38.2964 93.2308L38.1093 93.0437L36.82 91.7546L15.1949 70.1316C14.8364 69.8017 14.5466 69.4043 14.342 68.9621C14.1375 68.52 14.0222 68.0418 14.0029 67.555C13.9836 67.0683 14.0606 66.5824 14.2295 66.1254C14.3983 65.6685 14.6557 65.2493 14.987 64.8921L15.1949 64.6842L36.82 43.0611L38.0885 41.7721L38.2964 41.585L38.1093 41.7721C37.2367 42.7902 36.7638 44.0906 36.7785 45.4314V89.4052C36.782 90.7401 37.2612 92.0301 38.13 93.0437Z" fill="#09325A"/>
<path d="M81.4218 70.1314L59.7967 91.7544L58.5283 93.0227L58.3203 93.2306L58.5075 93.0227C59.3582 92.0015 59.8219 90.7133 59.8174 89.3842V22.5607L81.3802 1V64.6424L81.4218 70.1314Z" fill="#208CCC"/>
</svg>
